<svg xmlns="http://www.w3.org/2000/svg" viewBox="0 0 512 512">
  <circle cx="256" cy="256" r="256" fill="#276DC3"/>
  <path fill="#FFF" d="M394.2 309.6c-9.8-19.8-36-34.8-67.6-39.6-5.4-.8-10.8-1.6-16.4-1.8l.4-1.4c23.6-6.6 41.2-23.2 41.2-45.6 0-24.6-21.6-45.6-49.4-50.6h-.4c-6.4-1.2-12.8-1.8-20-1.8H151.6v200h61.4v-70h25.6c1.2 0 2.2 0 3.2.2.4.2 1 .2 1.4.2l40.2 70h68.4l-45-75.4c24-2.4 43.4-12.8 53.6-28.2 2.8-4 5-8.2 6.4-12.2zM212.8 204h45.4c15.4 0 28 10 28 22.4 0 12.4-12.6 22.4-28 22.4h-45.4V204z"/>
</svg>